# xmcd
#
# Track frame offsets:
#	150
#	7676
#	33548
#	55907
#	82143
#	103085
#	131158
#	154809
#	162305
#	190878
#
# Disc length: 2986 seconds
#
# Revision: 0
# Processed by: cddbd v1.5.2PL0 Copyright (c) Steve Scherf et al.
# Submitted via: EasyCDDAExtractor 9.0.0.1
#
DISCID=7f0ba80a
DTITLE=Black Sabbath - Casino Ballroom Hampton Beach NH 14-07-95 Master Disc 1
DYEAR=1995
DGENRE=Hard Rock
TTITLE0=Ave Satani
TTITLE1=Children Of The Grave
TTITLE2=Neon Knights
TTITLE3=The Shining
TTITLE4=The Wizard
TTITLE5=Get A Grip
TTITLE6=Headless Cross
TTITLE7=Guitar Intro
TTITLE8=Rusty Angels
TTITLE9=When Death Calls (Cut)
EXTD=
EXTT0=
EXTT1=
EXTT2=
EXTT3=
EXTT4=
EXTT5=
EXTT6=
EXTT7=
EXTT8=
EXTT9=
PLAYORDER=
